<mxfile host="app.diagrams.net" modified="2020-12-28T00:41:47.127Z" agent="5.0 (Windows NT 10.0; Win64; x64) AppleWebKit/537.36 (KHTML, like Gecko) Chrome/87.0.4280.88 Safari/537.36" etag="U714-0PPFtBAxZ1u5P-1" version="14.1.1" type="github">
  <diagram id="PtOypUMsciX7awteMJ4V" name="Page-1">
    <mxGraphModel dx="868" dy="450" grid="1" gridSize="10" guides="1" tooltips="1" connect="1" arrows="1" fold="1" page="1" pageScale="1" pageWidth="850" pageHeight="1100" math="0" shadow="0">
      <root>
        <mxCell id="0" />
        <mxCell id="1" parent="0" />
        <mxCell id="CpMikSV2LtpxpvOBcgup-1" value="Header" style="rounded=0;whiteSpace=wrap;html=1;fontSize=26;" vertex="1" parent="1">
          <mxGeometry x="160" width="480" height="80" as="geometry" />
        </mxCell>
        <mxCell id="CpMikSV2LtpxpvOBcgup-2" value="" style="rounded=0;whiteSpace=wrap;html=1;fontSize=26;" vertex="1" parent="1">
          <mxGeometry x="160" y="95" width="480" height="465" as="geometry" />
        </mxCell>
        <mxCell id="CpMikSV2LtpxpvOBcgup-4" value="Game" style="text;html=1;strokeColor=none;fillColor=none;align=center;verticalAlign=middle;whiteSpace=wrap;rounded=0;fontSize=26;" vertex="1" parent="1">
          <mxGeometry x="330" y="110" width="120" height="20" as="geometry" />
        </mxCell>
        <mxCell id="CpMikSV2LtpxpvOBcgup-5" value="Question" style="rounded=0;whiteSpace=wrap;html=1;fontSize=26;" vertex="1" parent="1">
          <mxGeometry x="170" y="420" width="460" height="60" as="geometry" />
        </mxCell>
        <mxCell id="CpMikSV2LtpxpvOBcgup-6" value="Answer" style="rounded=0;whiteSpace=wrap;html=1;fontSize=26;" vertex="1" parent="1">
          <mxGeometry x="170" y="490" width="460" height="60" as="geometry" />
        </mxCell>
        <mxCell id="aeGdjqcJT259sOI1MLhR-1" value="Settings" style="rounded=0;whiteSpace=wrap;html=1;fontSize=26;" vertex="1" parent="1">
          <mxGeometry x="170" y="140" width="120" height="60" as="geometry" />
        </mxCell>
        <mxCell id="aeGdjqcJT259sOI1MLhR-2" value="Start" style="rounded=0;whiteSpace=wrap;html=1;fontSize=26;" vertex="1" parent="1">
          <mxGeometry x="300" y="140" width="330" height="60" as="geometry" />
        </mxCell>
        <mxCell id="aeGdjqcJT259sOI1MLhR-3" value="Animation" style="rounded=0;whiteSpace=wrap;html=1;fontSize=26;" vertex="1" parent="1">
          <mxGeometry x="170" y="210" width="460" height="200" as="geometry" />
        </mxCell>
      </root>
    </mxGraphModel>
  </diagram>
</mxfile>
